# xmcd
# Track frame offsets:
# 150
# 11209
# 24852
# 35814
# 50110
# 62146
# 74403
# 88198
# 98944
# 113216
# 126984
# 137545
# 148728
# 163752
# 177617
# 189103
# 200133
# 211594
# 225592
# 240268
#
# Disc length: 3371 seconds
# Revision: 0
# Processed by: cddbd v1.5.1PL0 Copyright (c) Steve Scherf et al.
# Submitted via: VisiTrax 2.9.10.228 - For more info visit www.synapsa.com
#
DISCID=260d2914
DTITLE=Various Artist - Ultimate Doo Wop CD 2
DYEAR=2005
DGENRE=Blues
TTITLE0=Chords, The - Sh-Boom
TTITLE1=Angels, The - Wedding Bells Are Ringing In My Ears
TTITLE2=Checkers, The - Night's Curtain
TTITLE3=Platters, The - I'll Cry When You're Gone
TTITLE4=Lamplighters, The - I Used To Cry Mercy Mercy
TTITLE5=Clovers, The - Lovey Dovey
TTITLE6=Gems, The - You're Tired Of Love
TTITLE7=Solitaires, The - Blue Valentine
TTITLE8=Cardinals, The - Shouldn't I Know
TTITLE9=Scarlets, The - Dear One
TTITLE10=Swans, The - My True Love
TTITLE11=Drifters, The with Clyde McPhatter - Such A Night
TTITLE12=Velvets, The - I [More Than You Know]
TTITLE13=Sonny Til and Orioles, The - I Miss You So
TTITLE14=Clovers, The - Fool Fool Fool
TTITLE15=Feathers, The - Johnny Darling
TTITLE16=Spiders, The - I'm Slippin' In
TTITLE17=Harptones, The - A Sunday Kind Of Love
TTITLE18=Mello-Moods, The - Where Are You [Now That I Need You]
TTITLE19=Coronets, The - Nadine
EXTD=
EXTT0=
EXTT1=
EXTT2=
EXTT3=
EXTT4=
EXTT5=
EXTT6=
EXTT7=
EXTT8=
EXTT9=
EXTT10=
EXTT11=
EXTT12=
EXTT13=
EXTT14=
EXTT15=
EXTT16=
EXTT17=
EXTT18=
EXTT19=
PLAYORDER=
